<svg xmlns="http://www.w3.org/2000/svg" viewBox="0 0 64 64" width="64" height="64" role="img" aria-label="StoryPlay">
  <title>StoryPlay</title>
  <rect width="64" height="64" rx="16" fill="#121816"/>
  <path
    d="M15 18.8c6.6-4.4 12.8-4.2 17 .3v28.6c-4.6-3.8-10.6-4-17-.2V18.8Z"
    fill="#F4F1E8"
  />
  <path
    d="M32 19.1c4.2-4.5 10.4-4.7 17-.3v28.7c-6.4-3.8-12.4-3.6-17 .2V19.1Z"
    fill="#DDE7DE"
  />
  <path
    d="M32 19.1v28.6"
    fill="none"
    stroke="#121816"
    stroke-linecap="round"
    stroke-width="2.4"
    opacity=".32"
  />
  <path
    d="M29.5 26.8c0-1.5 1.7-2.4 3-1.6l9.4 5.9c1.2.8 1.2 2.6 0 3.4l-9.4 5.9c-1.3.8-3-.1-3-1.6v-12Z"
    fill="#FF7A5F"
  />
  <path
    d="M20.7 23.3h5.8M20.7 29h4.8M38 23.3h5.3"
    fill="none"
    stroke="#121816"
    stroke-linecap="round"
    stroke-width="2"
    opacity=".28"
  />
</svg>
